<?xml version="1.0" encoding="UTF-8" standalone="no"?>
<svg
   xmlns:dc="http://purl.org/dc/elements/1.1/"
   xmlns:cc="http://creativecommons.org/ns#"
   xmlns:rdf="http://www.w3.org/1999/02/22-rdf-syntax-ns#"
   xmlns:svg="http://www.w3.org/2000/svg"
   xmlns="http://www.w3.org/2000/svg"
   xmlns:sodipodi="http://sodipodi.sourceforge.net/DTD/sodipodi-0.dtd"
   xmlns:inkscape="http://www.inkscape.org/namespaces/inkscape"
   width="24"
   height="24"
   viewBox="0 0 24 24"
   version="1.1"
   id="svg6"
   sodipodi:docname="round-save-24px.svg"
   inkscape:version="0.92.2 (5c3e80d, 2017-08-06)">
  <metadata
     id="metadata12">
    <rdf:RDF>
      <cc:Work
         rdf:about="">
        <dc:format>image/svg+xml</dc:format>
        <dc:type
           rdf:resource="http://purl.org/dc/dcmitype/StillImage" />
      </cc:Work>
    </rdf:RDF>
  </metadata>
  <defs
     id="defs10" />
  <sodipodi:namedview
     pagecolor="#ffffff"
     bordercolor="#666666"
     borderopacity="1"
     objecttolerance="10"
     gridtolerance="10"
     guidetolerance="10"
     inkscape:pageopacity="0"
     inkscape:pageshadow="2"
     inkscape:window-width="1920"
     inkscape:window-height="1017"
     id="namedview8"
     showgrid="false"
     inkscape:zoom="9.8333333"
     inkscape:cx="12"
     inkscape:cy="12"
     inkscape:window-x="-8"
     inkscape:window-y="-8"
     inkscape:window-maximized="1"
     inkscape:current-layer="svg6" />
  <path
     fill="none"
     d="M0 0h24v24H0V0z"
     id="path2" />
  <path
     d="M 17.031,4.431 C 16.689,4.089 16.23,3.9 15.753,3.9 H 5.7 C 4.701,3.9 3.9,4.71 3.9,5.7 v 12.6 c 0,0.99 0.81,1.8 1.8,1.8 h 12.6 c 0.99,0 1.8,-0.81 1.8,-1.8 V 8.247 C 20.1,7.77 19.911,7.311 19.569,6.978 Z M 12,18.3 c -1.494,0 -2.7,-1.206 -2.7,-2.7 0,-1.494 1.206,-2.7 2.7,-2.7 1.494,0 2.7,1.206 2.7,2.7 0,1.494 -1.206,2.7 -2.7,2.7 z m 0.9,-9 H 7.5 C 6.51,9.3 5.7,8.49 5.7,7.5 5.7,6.51 6.51,5.7 7.5,5.7 h 5.4 c 0.99,0 1.8,0.81 1.8,1.8 0,0.99 -0.81,1.8 -1.8,1.8 z"
     id="path4"
     style="fill:#aad400;stroke-width:0.89999998"
     inkscape:connector-curvature="0" />
</svg>
